
      <svg data-logo="logo" xmlns="http://www.w3.org/2000/svg" viewBox="0 0 130 40">
        <g id="logogram" transform="translate(0, 0) rotate(0) "><path d="M64.981 40C76.0267 40 84.9808 31.0456 84.9808 19.9999C84.9808 8.9543 76.0267 0 64.981 0C53.9353 0 44.9809 8.9543 44.9809 19.9999C44.9809 31.0456 53.9353 40 64.981 40Z" fill="white"/><path d="M109.69 40C120.736 40 129.69 31.0456 129.69 19.9999C129.69 8.9543 120.736 0 109.69 0C98.6443 0 89.6899 8.9543 89.6899 19.9999C89.6899 31.0456 98.6443 40 109.69 40Z" fill="white"/><path d="M40.2717 0H0.290833V39.9808H40.2717V0Z" fill="white"/></g>
        <g id="logotype" transform="translate(130, 20)"></g>
        
      </svg>
    